<svg width="111" height="100" viewBox="0 0 111 100" fill="none" xmlns="http://www.w3.org/2000/svg">
<path d="M50.3551 46.3611C46.1248 46.3611 41.9895 45.2207 38.4721 43.0841C34.9547 40.9475 32.2132 37.9107 30.5943 34.3577C28.9755 30.8047 28.5519 26.8951 29.3772 23.1232C30.2025 19.3513 32.2396 15.8867 35.2309 13.1673C38.2222 10.448 42.0333 8.59606 46.1823 7.8458C50.3314 7.09553 54.632 7.48059 58.5403 8.9523C62.4486 10.424 65.7891 12.9162 68.1393 16.1139C70.4896 19.3115 71.744 23.0709 71.744 26.9166C71.744 32.0736 69.4905 37.0194 65.4793 40.6659C61.4681 44.3125 56.0278 46.3611 50.3551 46.3611ZM50.3551 13.25C47.3334 13.25 44.3796 14.0645 41.8672 15.5907C39.3548 17.1168 37.3966 19.2859 36.2403 21.8238C35.0839 24.3617 34.7814 27.1543 35.3709 29.8484C35.9604 32.5426 37.4154 35.0174 39.5521 36.9598C41.6887 38.9022 44.411 40.225 47.3746 40.7609C50.3382 41.2968 53.41 41.0217 56.2016 39.9705C58.9933 38.9193 61.3794 37.1391 63.0581 34.8551C64.7369 32.5711 65.6329 29.8858 65.6329 27.1388C65.6329 25.3149 65.2377 23.5089 64.4699 21.8238C63.7021 20.1387 62.5768 18.6076 61.1581 17.3179C59.7394 16.0282 58.0552 15.0052 56.2016 14.3072C54.3481 13.6092 52.3614 13.25 50.3551 13.25ZM67.3745 49.7222C50.8392 46.3396 33.5405 47.9688 18.119 54.3611C15.9981 55.2821 14.2087 56.7318 12.9591 58.5416C11.7095 60.3513 11.0511 62.4466 11.0606 64.5833V81.1111C11.0606 81.4759 11.1397 81.8371 11.2932 82.1741C11.4468 82.5111 11.6719 82.8173 11.9556 83.0753C12.2393 83.3332 12.5762 83.5378 12.9469 83.6774C13.3176 83.817 13.7149 83.8888 14.1162 83.8888C14.5175 83.8888 14.9148 83.817 15.2855 83.6774C15.6562 83.5378 15.9931 83.3332 16.2768 83.0753C16.5605 82.8173 16.7856 82.5111 16.9392 82.1741C17.0927 81.8371 17.1718 81.4759 17.1718 81.1111V64.5833C17.1452 63.5019 17.4664 62.437 18.096 61.5192C18.7256 60.6014 19.6363 59.8706 20.7162 59.4166C30.0059 55.5172 40.123 53.5165 50.3551 53.5555C56.0883 53.5489 61.8018 54.1643 67.3745 55.3888V49.7222ZM67.8023 76.1388H86.5634V80.0277H67.8023V76.1388Z" fill="white"/>
<path d="M101.505 59.6389H85.7077V65.1945H98.4493V88.4445H55.1521V65.1945H74.4021V66.3612C74.4021 67.0979 74.724 67.8044 75.2971 68.3254C75.8701 68.8463 76.6473 69.1389 77.4577 69.1389C78.2681 69.1389 79.0453 68.8463 79.6183 68.3254C80.1913 67.8044 80.5132 67.0979 80.5132 66.3612V55.5556C80.5132 54.8189 80.1913 54.1124 79.6183 53.5914C79.0453 53.0705 78.2681 52.7778 77.4577 52.7778C76.6473 52.7778 75.8701 53.0705 75.2971 53.5914C74.724 54.1124 74.4021 54.8189 74.4021 55.5556V59.6389H52.0966C51.2862 59.6389 50.509 59.9316 49.936 60.4525C49.3629 60.9735 49.041 61.68 49.041 62.4167V91.2223C49.041 91.959 49.3629 92.6655 49.936 93.1865C50.509 93.7074 51.2862 94.0001 52.0966 94.0001H101.505C102.315 94.0001 103.092 93.7074 103.666 93.1865C104.239 92.6655 104.56 91.959 104.56 91.2223V62.4167C104.56 61.68 104.239 60.9735 103.666 60.4525C103.092 59.9316 102.315 59.6389 101.505 59.6389Z" fill="white"/>
</svg>
