<svg width="110" height="100" viewBox="0 0 110 100" fill="none" xmlns="http://www.w3.org/2000/svg">
<path d="M87.9333 18.8H22.0667V14H87.9333V18.8ZM22.1173 25.5296C22.2321 24.9857 22.5421 24.4963 22.9947 24.1445C23.4473 23.7927 24.0146 23.6003 24.6 23.6H85.4C85.9854 23.6003 86.5527 23.7927 87.0053 24.1445C87.4579 24.4963 87.7679 24.9857 87.8827 25.5296L92.9493 49.5296C93.0228 49.8777 93.0138 50.2368 92.9231 50.5812C92.8323 50.9256 92.6621 51.2466 92.4247 51.5211C92.1872 51.7957 91.8884 52.0169 91.5499 52.1689C91.2113 52.3208 90.8413 52.3998 90.4667 52.4H19.5333C19.1587 52.3998 18.7887 52.3208 18.4502 52.1689C18.1116 52.0169 17.8128 51.7957 17.5753 51.5211C17.3379 51.2466 17.1677 50.9256 17.0769 50.5812C16.9862 50.2368 16.9772 49.8777 17.0507 49.5296L22.1173 25.5296ZM22.0667 57.2V81.2H17V86H93V81.2H87.9333V57.2H77.8V66.8H32.2V57.2H22.0667Z" fill="white"/>
</svg>
