<svg width="111" height="100" viewBox="0 0 111 100" fill="none" xmlns="http://www.w3.org/2000/svg">
<path d="M13.8389 25H96.3389V75H13.8389V25ZM55.0889 37.5C58.7356 37.5 62.233 38.817 64.8116 41.1612C67.3902 43.5054 68.8389 46.6848 68.8389 50C68.8389 53.3152 67.3902 56.4946 64.8116 58.8388C62.233 61.183 58.7356 62.5 55.0889 62.5C51.4421 62.5 47.9448 61.183 45.3661 58.8388C42.7875 56.4946 41.3389 53.3152 41.3389 50C41.3389 46.6848 42.7875 43.5054 45.3661 41.1612C47.9448 38.817 51.4421 37.5 55.0889 37.5ZM32.1722 33.3333C32.1722 35.5435 31.2064 37.6631 29.4873 39.2259C27.7683 40.7887 25.4367 41.6667 23.0055 41.6667V58.3333C25.4367 58.3333 27.7683 59.2113 29.4873 60.7741C31.2064 62.3369 32.1722 64.4565 32.1722 66.6667H78.0055C78.0055 64.4565 78.9713 62.3369 80.6904 60.7741C82.4095 59.2113 84.7411 58.3333 87.1722 58.3333V41.6667C84.7411 41.6667 82.4095 40.7887 80.6904 39.2259C78.9713 37.6631 78.0055 35.5435 78.0055 33.3333H32.1722Z" fill="white"/>
</svg>
